<svg width="1440" height="26" viewBox="0 0 1440 26" fill="none" xmlns="http://www.w3.org/2000/svg">
<g opacity="0.25">
<path d="M0 6.84424C34.2864 6.84424 34.2863 19.4857 68.5727 19.4857C102.859 19.4857 102.859 6.84424 137.132 6.84424C171.405 6.84424 171.418 19.4857 205.705 19.4857C239.991 19.4857 239.991 6.84424 274.277 6.84424C308.564 6.84424 308.564 19.4857 342.837 19.4857C377.11 19.4857 377.123 6.84424 411.409 6.84424C445.696 6.84424 445.696 19.4857 479.982 19.4857C514.268 19.4857 514.268 6.84424 548.555 6.84424C582.841 6.84424 582.828 19.4857 617.114 19.4857C651.4 19.4857 651.4 6.84424 685.687 6.84424C719.973 6.84424 719.973 19.4857 754.246 19.4857C788.519 19.4857 788.532 6.84424 822.819 6.84424C857.105 6.84424 857.105 19.4857 891.405 19.4857C925.705 19.4857 925.678 6.84424 959.964 6.84424C994.251 6.84424 994.264 19.4857 1028.55 19.4857C1062.84 19.4857 1062.84 6.84424 1097.11 6.84424C1131.38 6.84424 1131.4 19.4857 1165.68 19.4857C1199.97 19.4857 1199.97 6.84424 1234.27 6.84424C1268.57 6.84424 1268.55 19.4857 1302.84 19.4857C1337.13 19.4857 1337.13 6.84424 1371.41 6.84424C1405.7 6.84424 1405.71 19.4857 1440 19.4857" fill="black"/>
<path d="M0 6.84424C34.2864 6.84424 34.2863 19.4857 68.5727 19.4857C102.859 19.4857 102.859 6.84424 137.132 6.84424C171.405 6.84424 171.418 19.4857 205.705 19.4857C239.991 19.4857 239.991 6.84424 274.277 6.84424C308.564 6.84424 308.564 19.4857 342.837 19.4857C377.11 19.4857 377.123 6.84424 411.409 6.84424C445.696 6.84424 445.696 19.4857 479.982 19.4857C514.268 19.4857 514.268 6.84424 548.555 6.84424C582.841 6.84424 582.828 19.4857 617.114 19.4857C651.4 19.4857 651.4 6.84424 685.687 6.84424C719.973 6.84424 719.973 19.4857 754.246 19.4857C788.519 19.4857 788.532 6.84424 822.819 6.84424C857.105 6.84424 857.105 19.4857 891.405 19.4857C925.705 19.4857 925.678 6.84424 959.964 6.84424C994.251 6.84424 994.264 19.4857 1028.55 19.4857C1062.84 19.4857 1062.84 6.84424 1097.11 6.84424C1131.38 6.84424 1131.4 19.4857 1165.68 19.4857C1199.97 19.4857 1199.97 6.84424 1234.27 6.84424C1268.57 6.84424 1268.55 19.4857 1302.84 19.4857C1337.13 19.4857 1337.13 6.84424 1371.41 6.84424C1405.7 6.84424 1405.71 19.4857 1440 19.4857" stroke="black" stroke-width="13" stroke-miterlimit="10"/>
</g>
</svg>
